# xmcd CD database file
#
# Track frame offsets:
#	150
#	24480
#	52074
#	82895
#	110694
#	131591
#	151679
#	166522
#	187223
#	202066
#	221214
#	237854
#	257004
#	279953
#
# Disc length: 4177 seconds
#
# Revision: 0
# Processed by: cddbd v1.5.2PL0 Copyright (c) Steve Scherf et al.
# Submitted via: CDex 1.70beta2
#
DISCID=c1104f0e
DTITLE=Willie - Carlos V-Daiquiri -Ruben - Varios Vol 1
DYEAR=2002
DGENRE=Salsa
TTITLE0=Cueste Lo Que Cueste - Willie Colon
TTITLE1=El Gran Varon - Willie Colon
TTITLE2=Gitana - Willie Colon
TTITLE3=Oh Que Sera - Willie Colon
TTITLE4=19 De Noviembre - Carlos Vives
TTITLE5=Tu Tienes La Llave de Mi Corazon - Carlos Vives
TTITLE6=Desde Que Te Fuiste - Daiquiri
TTITLE7=Chamo Candela - Daiquiri
TTITLE8=Desde Que Te Fuiste - Daiquiri
TTITLE9=Isla Para Dos - Daiquiri
TTITLE10=La Casa del Ritmo - Daiquiri
TTITLE11=El Periodico de Ayer - Hector Lavoe
TTITLE12=Decisiones - Ruben Blades
TTITLE13=Pedro Navaja - Ruben Blades
EXTD=YEAR: 2002
EXTT0=
EXTT1=
EXTT2=
EXTT3=
EXTT4=
EXTT5=
EXTT6=
EXTT7=
EXTT8=
EXTT9=
EXTT10=
EXTT11=
EXTT12=
EXTT13=
PLAYORDER=
